 <!-- <svg
  class="h-10 w-10 text-primary-500 dark:text-gray-400"
  xmlns="http://www.w3.org/2000/svg"
  fill="#2dd4bf"
  viewBox="0 0 24 24"
>
<path
  stroke="currentColor"
  stroke-linecap="round"
  stroke-linejoin="round"
  stroke-width="2"
  d="M20.337 3.664c.213.212.354.486.404.782.294 1.711.657 5.195-.906 6.76-1.77 1.768-8.485 5.517-10.611 6.683a.987.987 0 0 1-1.176-.173l-.882-.88-.877-.884a.988.988 0 0 1-.173-1.177c1.165-2.126 4.913-8.841 6.682-10.611 1.562-1.563 5.046-1.198 6.757-.904.296.05.57.191.782.404ZM5.407 7.576l4-.341-2.69 4.48-2.857-.334a.996.996 0 0 1-.565-1.694l2.112-2.111Zm11.357 7.02-.34 4-2.111 2.113a.996.996 0 0 1-1.69-.565l-.422-2.807 4.563-2.74Zm.84-6.21a1.99 1.99 0 1 1-3.98 0 1.99 1.99 0 0 1 3.98 0Z"
></path>
</svg> -->

<svg  
  class="h-10 w-10 text-primary-600" 
  fill="#db2777" 
  version="1.1"  
  xmlns="http://www.w3.org/2000/svg" xmlns:xlink="http://www.w3.org/1999/xlink" viewBox="0 0 536.743 536.744" xml:space="preserve" style="--darkreader-inline-fill: #000000;" data-darkreader-inline-fill=""><g id="SVGRepo_bgCarrier" stroke-width="0"></g><g id="SVGRepo_tracerCarrier" stroke-linecap="round" stroke-linejoin="round"></g><g id="SVGRepo_iconCarrier"> <g> <g> 
<path d="M266.191,402.419l4.36,0.219c145.455,0,128.004-94.543,266.191-155.638c-81.453,0-167.277-112.895-215.28-112.895 c-48.004,0-50.911,48.568-50.911,48.568l-0.86,4.188c0,0-6.407-52.747-54.411-52.747C167.277,134.114,81.453,246.56,0,246.56 C138.188,307.654,120.727,402.419,266.191,402.419z M412.746,249.553c-56.725,13.818-75.276,45.097-142.003,45.097 c-63.82,0-119.455-45.097-142.003-45.097C128.73,249.553,347.281,252.097,412.746,249.553z">
</path> </g> </g> </g></svg>